#define b1_width 36
#define b1_height 61
static unsigned char b1_bits[] = {
   0x00, 0x00, 0x00, 0x00, 0x00, 0x00, 0x00, 0xef, 0x01, 0x00, 0x00, 0x00,
   0xef, 0x01, 0x00, 0x00, 0x00, 0xef, 0x01, 0x00, 0x00, 0x00, 0xef, 0x01,
   0x00, 0x00, 0x00, 0x00, 0x00, 0x00, 0x00, 0x78, 0xef, 0x01, 0x00, 0x00,
   0x78, 0xef, 0x01, 0x00, 0x00, 0x78, 0xef, 0x01, 0x00, 0x00, 0x78, 0xef,
   0x01, 0x00, 0x00, 0x00, 0x00, 0x00, 0x00, 0xc0, 0x7b, 0xef, 0x01, 0x00,
   0xc0, 0x7b, 0xef, 0x01, 0x00, 0xc0, 0x7b, 0xef, 0x01, 0x00, 0xc0, 0x7b,
   0xef, 0x01, 0x00, 0x00, 0x00, 0x00, 0x00, 0x00, 0xc0, 0x03, 0xef, 0x01,
   0x00, 0xc0, 0x03, 0xef, 0x01, 0x00, 0xc0, 0x03, 0xef, 0x01, 0x00, 0xc0,
   0x03, 0xef, 0x01, 0x00, 0x00, 0x00, 0x00, 0x00, 0x00, 0x00, 0x00, 0xef,
   0x01, 0x00, 0x00, 0x00, 0xef, 0x01, 0x00, 0x00, 0x00, 0xef, 0x01, 0x00,
   0x00, 0x00, 0xef, 0x01, 0x00, 0x00, 0x00, 0x00, 0x00, 0x00, 0x00, 0x00,
   0xef, 0x01, 0x00, 0x00, 0x00, 0xef, 0x01, 0x00, 0x00, 0x00, 0xef, 0x01,
   0x00, 0x00, 0x00, 0xef, 0x01, 0x00, 0x00, 0x00, 0x00, 0x00, 0x00, 0x00,
   0x00, 0xef, 0x01, 0x00, 0x00, 0x00, 0xef, 0x01, 0x00, 0x00, 0x00, 0xef,
   0x01, 0x00, 0x00, 0x00, 0xef, 0x01, 0x00, 0x00, 0x00, 0x00, 0x00, 0x00,
   0x00, 0x00, 0xef, 0x01, 0x00, 0x00, 0x00, 0xef, 0x01, 0x00, 0x00, 0x00,
   0xef, 0x01, 0x00, 0x00, 0x00, 0xef, 0x01, 0x00, 0x00, 0x00, 0x00, 0x00,
   0x00, 0x00, 0x00, 0xef, 0x01, 0x00, 0x00, 0x00, 0xef, 0x01, 0x00, 0x00,
   0x00, 0xef, 0x01, 0x00, 0x00, 0x00, 0xef, 0x01, 0x00, 0x00, 0x00, 0x00,
   0x00, 0x00, 0x00, 0x00, 0xef, 0x01, 0x00, 0x00, 0x00, 0xef, 0x01, 0x00,
   0x00, 0x00, 0xef, 0x01, 0x00, 0x00, 0x00, 0xef, 0x01, 0x00, 0x00, 0x00,
   0x00, 0x00, 0x00, 0x00, 0x00, 0xef, 0x01, 0x00, 0x00, 0x00, 0xef, 0x01,
   0x00, 0x00, 0x00, 0xef, 0x01, 0x00, 0x00, 0x00, 0xef, 0x01, 0x00, 0x00,
   0x00, 0x00, 0x00, 0x00, 0x00, 0x00, 0xef, 0x01, 0x00, 0x00, 0x00, 0xef,
   0x01, 0x00, 0x00, 0x00, 0xef, 0x01, 0x00, 0x00, 0x00, 0xef, 0x01, 0x00,
   0x00, 0x00, 0x00, 0x00, 0x00 };
