#define b7_width 36
#define b7_height 61
static unsigned char b7_bits[] = {
   0x00, 0x00, 0x00, 0x00, 0x00, 0xde, 0x7b, 0xef, 0xbd, 0x07, 0xde, 0x7b,
   0xef, 0xbd, 0x07, 0xde, 0x7b, 0xef, 0xbd, 0x07, 0xde, 0x7b, 0xef, 0xbd,
   0x07, 0x00, 0x00, 0x00, 0x00, 0x00, 0x1e, 0x00, 0x00, 0xbc, 0x07, 0x1e,
   0x00, 0x00, 0xbc, 0x07, 0x1e, 0x00, 0x00, 0xbc, 0x07, 0x1e, 0x00, 0x00,
   0xbc, 0x07, 0x00, 0x00, 0x00, 0x00, 0x00, 0x00, 0x00, 0x00, 0xbc, 0x07,
   0x00, 0x00, 0x00, 0xbc, 0x07, 0x00, 0x00, 0x00, 0xbc, 0x07, 0x00, 0x00,
   0x00, 0xbc, 0x07, 0x00, 0x00, 0x00, 0x00, 0x00, 0x00, 0x00, 0xe0, 0xbd,
   0x07, 0x00, 0x00, 0xe0, 0xbd, 0x07, 0x00, 0x00, 0xe0, 0xbd, 0x07, 0x00,
   0x00, 0xe0, 0xbd, 0x07, 0x00, 0x00, 0x00, 0x00, 0x00, 0x00, 0x00, 0xef,
   0x3d, 0x00, 0x00, 0x00, 0xef, 0x3d, 0x00, 0x00, 0x00, 0xef, 0x3d, 0x00,
   0x00, 0x00, 0xef, 0x3d, 0x00, 0x00, 0x00, 0x00, 0x00, 0x00, 0x00, 0x78,
   0xef, 0x01, 0x00, 0x00, 0x78, 0xef, 0x01, 0x00, 0x00, 0x78, 0xef, 0x01,
   0x00, 0x00, 0x78, 0xef, 0x01, 0x00, 0x00, 0x00, 0x00, 0x00, 0x00, 0x00,
   0x78, 0x0f, 0x00, 0x00, 0x00, 0x78, 0x0f, 0x00, 0x00, 0x00, 0x78, 0x0f,
   0x00, 0x00, 0x00, 0x78, 0x0f, 0x00, 0x00, 0x00, 0x00, 0x00, 0x00, 0x00,
   0x00, 0x78, 0x0f, 0x00, 0x00, 0x00, 0x78, 0x0f, 0x00, 0x00, 0x00, 0x78,
   0x0f, 0x00, 0x00, 0x00, 0x78, 0x0f, 0x00, 0x00, 0x00, 0x00, 0x00, 0x00,
   0x00, 0x00, 0x78, 0x0f, 0x00, 0x00, 0x00, 0x78, 0x0f, 0x00, 0x00, 0x00,
   0x78, 0x0f, 0x00, 0x00, 0x00, 0x78, 0x0f, 0x00, 0x00, 0x00, 0x00, 0x00,
   0x00, 0x00, 0x00, 0x78, 0x0f, 0x00, 0x00, 0x00, 0x78, 0x0f, 0x00, 0x00,
   0x00, 0x78, 0x0f, 0x00, 0x00, 0x00, 0x78, 0x0f, 0x00, 0x00, 0x00, 0x00,
   0x00, 0x00, 0x00, 0x00, 0x78, 0x0f, 0x00, 0x00, 0x00, 0x78, 0x0f, 0x00,
   0x00, 0x00, 0x78, 0x0f, 0x00, 0x00, 0x00, 0x78, 0x0f, 0x00, 0x00, 0x00,
   0x00, 0x00, 0x00, 0x00, 0x00, 0x78, 0x0f, 0x00, 0x00, 0x00, 0x78, 0x0f,
   0x00, 0x00, 0x00, 0x78, 0x0f, 0x00, 0x00, 0x00, 0x78, 0x0f, 0x00, 0x00,
   0x00, 0x00, 0x00, 0x00, 0x00 };
