#define n1_width 16
#define n1_height 26
static unsigned char n1_bits[] = {
   0x00, 0x00, 0xc0, 0x03, 0xc0, 0x03, 0xc0, 0x03, 0xc0, 0x03, 0x00, 0x00,
   0xde, 0x03, 0xde, 0x03, 0xde, 0x03, 0xde, 0x03, 0x00, 0x00, 0xc0, 0x03,
   0xc0, 0x03, 0xc0, 0x03, 0xc0, 0x03, 0x00, 0x00, 0xc0, 0x03, 0xc0, 0x03,
   0xc0, 0x03, 0xc0, 0x03, 0x00, 0x00, 0xc0, 0x03, 0xc0, 0x03, 0xc0, 0x03,
   0xc0, 0x03, 0x00, 0x00 };
