#define n5_width 16
#define n5_height 26
static unsigned char n5_bits[] = {
   0x00, 0x00, 0xde, 0x7b, 0xde, 0x7b, 0xde, 0x7b, 0xde, 0x7b, 0x00, 0x00,
   0x1e, 0x00, 0x1e, 0x00, 0x1e, 0x00, 0x1e, 0x00, 0x00, 0x00, 0xde, 0x7b,
   0xde, 0x7b, 0xde, 0x7b, 0xde, 0x7b, 0x00, 0x00, 0x00, 0x78, 0x00, 0x78,
   0x00, 0x78, 0x00, 0x78, 0x00, 0x00, 0xde, 0x7b, 0xde, 0x7b, 0xde, 0x7b,
   0xde, 0x7b, 0x00, 0x00 };
