#define n7_width 16
#define n7_height 26
static unsigned char n7_bits[] = {
   0x00, 0x00, 0xde, 0x7b, 0xde, 0x7b, 0xde, 0x7b, 0xde, 0x7b, 0x00, 0x00,
   0x00, 0x78, 0x00, 0x78, 0x00, 0x78, 0x00, 0x78, 0x00, 0x00, 0xc0, 0x03,
   0xc0, 0x03, 0xc0, 0x03, 0xc0, 0x03, 0x00, 0x00, 0xc0, 0x03, 0xc0, 0x03,
   0xc0, 0x03, 0xc0, 0x03, 0x00, 0x00, 0xc0, 0x03, 0xc0, 0x03, 0xc0, 0x03,
   0xc0, 0x03, 0x00, 0x00 };
