#define n9_width 16
#define n9_height 26
static unsigned char n9_bits[] = {
   0x00, 0x00, 0xde, 0x7b, 0xde, 0x7b, 0xde, 0x7b, 0xde, 0x7b, 0x00, 0x00,
   0x1e, 0x78, 0x1e, 0x78, 0x1e, 0x78, 0x1e, 0x78, 0x00, 0x00, 0xde, 0x7b,
   0xde, 0x7b, 0xde, 0x7b, 0xde, 0x7b, 0x00, 0x00, 0x00, 0x78, 0x00, 0x78,
   0x00, 0x78, 0x00, 0x78, 0x00, 0x00, 0xde, 0x7b, 0xde, 0x7b, 0xde, 0x7b,
   0xde, 0x7b, 0x00, 0x00 };
