#define down_width 21
#define down_height 21
static unsigned char down_bits[] = {
   0x00, 0x00, 0x00, 0xc0, 0x7b, 0x00, 0xc0, 0x7b, 0x00, 0xc0, 0x7b, 0x00,
   0xc0, 0x7b, 0x00, 0x00, 0x00, 0x00, 0xc0, 0x03, 0x00, 0xc0, 0x03, 0x00,
   0xc0, 0x03, 0x00, 0xc0, 0x03, 0x00, 0x00, 0x00, 0x00, 0x00, 0x78, 0x00,
   0x00, 0x78, 0x00, 0x00, 0x78, 0x00, 0x00, 0x78, 0x00, 0x00, 0x00, 0x00,
   0xc0, 0x7b, 0x00, 0xc0, 0x7b, 0x00, 0xc0, 0x7b, 0x00, 0xc0, 0x7b, 0x00,
   0x00, 0x00, 0x00 };
