#define head_up_open_width 21
#define head_up_open_height 21
static unsigned char head_up_open_bits[] = {
   0x00, 0x00, 0x00, 0x00, 0x00, 0x00, 0x00, 0x00, 0x00, 0x00, 0x00, 0x00,
   0x00, 0x00, 0x00, 0x00, 0x00, 0x00, 0x1e, 0x00, 0x0f, 0x1e, 0x00, 0x0f,
   0x1e, 0x00, 0x0f, 0x1e, 0x00, 0x0f, 0x00, 0x00, 0x00, 0xc0, 0x7b, 0x00,
   0xc0, 0x7b, 0x00, 0xc0, 0x7b, 0x00, 0xc0, 0x7b, 0x00, 0x00, 0x00, 0x00,
   0x1e, 0x78, 0x00, 0x1e, 0x78, 0x00, 0x1e, 0x78, 0x00, 0x1e, 0x78, 0x00,
   0x00, 0x00, 0x00 };
