#define head_right_open_width 21
#define head_right_open_height 21
static unsigned char head_right_open_bits[] = {
   0x00, 0x00, 0x00, 0x1e, 0x78, 0x00, 0x1e, 0x78, 0x00, 0x1e, 0x78, 0x00,
   0x1e, 0x78, 0x00, 0x00, 0x00, 0x00, 0xc0, 0x03, 0x00, 0xc0, 0x03, 0x00,
   0xc0, 0x03, 0x00, 0xc0, 0x03, 0x00, 0x00, 0x00, 0x00, 0xde, 0x03, 0x00,
   0xde, 0x03, 0x00, 0xde, 0x03, 0x00, 0xde, 0x03, 0x00, 0x00, 0x00, 0x00,
   0x00, 0x78, 0x00, 0x00, 0x78, 0x00, 0x00, 0x78, 0x00, 0x00, 0x78, 0x00,
   0x00, 0x00, 0x00 };
