#define head_left_width 21
#define head_left_height 21
static unsigned char head_left_bits[] = {
   0x00, 0x00, 0x00, 0x00, 0x00, 0x0f, 0x00, 0x00, 0x0f, 0x00, 0x00, 0x0f,
   0x00, 0x00, 0x0f, 0x00, 0x00, 0x00, 0xc0, 0x7b, 0x00, 0xc0, 0x7b, 0x00,
   0xc0, 0x7b, 0x00, 0xc0, 0x7b, 0x00, 0x00, 0x00, 0x00, 0xc0, 0x7b, 0x0f,
   0xc0, 0x7b, 0x0f, 0xc0, 0x7b, 0x0f, 0xc0, 0x7b, 0x0f, 0x00, 0x00, 0x00,
   0x00, 0x00, 0x00, 0x00, 0x00, 0x00, 0x00, 0x00, 0x00, 0x00, 0x00, 0x00,
   0x00, 0x00, 0x00 };
