#define test_width 21
#define test_height 21
static unsigned char test_bits[] = {
   0x00, 0x00, 0x00, 0x1e, 0x00, 0x00, 0x1e, 0x00, 0x00, 0x1e, 0x00, 0x00,
   0x1e, 0x00, 0x00, 0x00, 0x00, 0x00, 0xc0, 0x7b, 0x00, 0xc0, 0x7b, 0x00,
   0xc0, 0x7b, 0x00, 0xc0, 0x7b, 0x00, 0x00, 0x00, 0x00, 0xde, 0x7b, 0x00,
   0xde, 0x7b, 0x00, 0xde, 0x7b, 0x00, 0xde, 0x7b, 0x00, 0x00, 0x00, 0x00,
   0x00, 0x00, 0x00, 0x00, 0x00, 0x00, 0x00, 0x00, 0x00, 0x00, 0x00, 0x00,
   0x00, 0x00, 0x00 };
