#define head_left_open_width 21
#define head_left_open_height 21
static unsigned char head_left_open_bits[] = {
   0x00, 0x00, 0x00, 0xc0, 0x03, 0x0f, 0xc0, 0x03, 0x0f, 0xc0, 0x03, 0x0f,
   0xc0, 0x03, 0x0f, 0x00, 0x00, 0x00, 0x00, 0x78, 0x00, 0x00, 0x78, 0x00,
   0x00, 0x78, 0x00, 0x00, 0x78, 0x00, 0x00, 0x00, 0x00, 0x00, 0x78, 0x0f,
   0x00, 0x78, 0x0f, 0x00, 0x78, 0x0f, 0x00, 0x78, 0x0f, 0x00, 0x00, 0x00,
   0xc0, 0x03, 0x00, 0xc0, 0x03, 0x00, 0xc0, 0x03, 0x00, 0xc0, 0x03, 0x00,
   0x00, 0x00, 0x00 };
