#define left_down_width 21
#define left_down_height 21
static unsigned char left_down_bits[] = {
   0x00, 0x00, 0x00, 0x00, 0x00, 0x00, 0x00, 0x00, 0x00, 0x00, 0x00, 0x00,
   0x00, 0x00, 0x00, 0x00, 0x00, 0x00, 0x00, 0x78, 0x0f, 0x00, 0x78, 0x0f,
   0x00, 0x78, 0x0f, 0x00, 0x78, 0x0f, 0x00, 0x00, 0x00, 0xc0, 0x03, 0x0f,
   0xc0, 0x03, 0x0f, 0xc0, 0x03, 0x0f, 0xc0, 0x03, 0x0f, 0x00, 0x00, 0x00,
   0xc0, 0x7b, 0x00, 0xc0, 0x7b, 0x00, 0xc0, 0x7b, 0x00, 0xc0, 0x7b, 0x00,
   0x00, 0x00, 0x00 };
