#define right_width 21
#define right_height 21
static unsigned char right_bits[] = {
   0x00, 0x00, 0x00, 0x00, 0x00, 0x00, 0x00, 0x00, 0x00, 0x00, 0x00, 0x00,
   0x00, 0x00, 0x00, 0x00, 0x00, 0x00, 0xde, 0x03, 0x0f, 0xde, 0x03, 0x0f,
   0xde, 0x03, 0x0f, 0xde, 0x03, 0x0f, 0x00, 0x00, 0x00, 0x1e, 0x78, 0x0f,
   0x1e, 0x78, 0x0f, 0x1e, 0x78, 0x0f, 0x1e, 0x78, 0x0f, 0x00, 0x00, 0x00,
   0x00, 0x00, 0x00, 0x00, 0x00, 0x00, 0x00, 0x00, 0x00, 0x00, 0x00, 0x00,
   0x00, 0x00, 0x00 };
