#define tail_up_left_width 21
#define tail_up_left_height 21
static unsigned char tail_up_left_bits[] = {
   0x00, 0x00, 0x00, 0x00, 0x00, 0x00, 0x00, 0x00, 0x00, 0x00, 0x00, 0x00,
   0x00, 0x00, 0x00, 0x00, 0x00, 0x00, 0xde, 0x03, 0x00, 0xde, 0x03, 0x00,
   0xde, 0x03, 0x00, 0xde, 0x03, 0x00, 0x00, 0x00, 0x00, 0xde, 0x7b, 0x0f,
   0xde, 0x7b, 0x0f, 0xde, 0x7b, 0x0f, 0xde, 0x7b, 0x0f, 0x00, 0x00, 0x00,
   0x00, 0x00, 0x00, 0x00, 0x00, 0x00, 0x00, 0x00, 0x00, 0x00, 0x00, 0x00,
   0x00, 0x00, 0x00 };
