#define tail_down_right_width 21
#define tail_down_right_height 21
static unsigned char tail_down_right_bits[] = {
   0x00, 0x00, 0x00, 0x00, 0x00, 0x00, 0x00, 0x00, 0x00, 0x00, 0x00, 0x00,
   0x00, 0x00, 0x00, 0x00, 0x00, 0x00, 0x00, 0x78, 0x0f, 0x00, 0x78, 0x0f,
   0x00, 0x78, 0x0f, 0x00, 0x78, 0x0f, 0x00, 0x00, 0x00, 0xde, 0x7b, 0x0f,
   0xde, 0x7b, 0x0f, 0xde, 0x7b, 0x0f, 0xde, 0x7b, 0x0f, 0x00, 0x00, 0x00,
   0x00, 0x00, 0x00, 0x00, 0x00, 0x00, 0x00, 0x00, 0x00, 0x00, 0x00, 0x00,
   0x00, 0x00, 0x00 };
