#define up_food_width 21
#define up_food_height 21
static unsigned char up_food_bits[] = {
   0x00, 0x00, 0x00, 0xc0, 0x7b, 0x00, 0xc0, 0x7b, 0x00, 0xc0, 0x7b, 0x00,
   0xc0, 0x7b, 0x00, 0x00, 0x00, 0x00, 0x1e, 0x78, 0x0f, 0x1e, 0x78, 0x0f,
   0x1e, 0x78, 0x0f, 0x1e, 0x78, 0x0f, 0x00, 0x00, 0x00, 0xde, 0x03, 0x0f,
   0xde, 0x03, 0x0f, 0xde, 0x03, 0x0f, 0xde, 0x03, 0x0f, 0x00, 0x00, 0x00,
   0xc0, 0x7b, 0x00, 0xc0, 0x7b, 0x00, 0xc0, 0x7b, 0x00, 0xc0, 0x7b, 0x00,
   0x00, 0x00, 0x00 };
